<?xml version="1.0" encoding="UTF-8"?>
<svg version="1.1" xmlns="http://www.w3.org/2000/svg" width="426" height="498">
<path d="M0 0 C0.99 0.66 1.98 1.32 3 2 C3 2.66 3 3.32 3 4 C3.66 4 4.32 4 5 4 C6.29855607 6.20452542 7.58888195 8.41323296 8.875 10.625 C9.23980469 11.24246094 9.60460937 11.85992187 9.98046875 12.49609375 C14.20628215 19.79522599 16.20346027 26.51735768 15 35 C13.65750783 38.2463051 11.99527103 41.11398298 10 44 C8.2500539 40.5001078 9.26604528 35.89432399 9.65429688 32.02929688 C9.8408566 29.59986975 9.8408566 29.59986975 9 26 C6.70983056 23.65907657 3.91671858 22.4313856 1 21 C-1.12286103 19.8430807 -3.24381365 18.68265562 -5.36328125 17.51953125 C-7.67822726 16.28112068 -9.99466732 15.04549937 -12.3125 13.8125 C-14.6429587 12.57092202 -16.97209026 11.32692895 -19.30078125 10.08203125 C-20.32341064 9.53780518 -21.34604004 8.9935791 -22.3996582 8.43286133 C-25 7 -25 7 -28 5 C-27.78515625 3.140625 -27.78515625 3.140625 -27 1 C-18.1879143 -4.56552781 -9.27350542 -3.98742442 0 0 Z " fill="#FFFFFF" transform="translate(333,11)"/>
<path d="M0 0 C12.89200696 -1.34908348 22.42638521 5.57344592 32.75878906 12.41015625 C37.20228909 15.11539591 41.85919228 17.35401472 46.55712891 19.58178711 C51.67256805 22.04240173 51.67256805 22.04240173 52.77441406 24.24609375 C44.2868635 25.87653602 35.7902008 27.45713104 27.27441406 28.93359375 C26.54625488 29.06483643 25.8180957 29.1960791 25.06787109 29.33129883 C14.53784596 31.12479523 9.68821589 30.16435693 0.77441406 24.24609375 C-0.88633407 23.24789876 -2.55298149 22.25944833 -4.22558594 21.28125 C-21.46583083 11.04548967 -21.46583083 11.04548967 -29.22558594 5.24609375 C-26.7265378 2.74704562 -25.48548195 2.81315035 -22.01855469 2.39453125 C-20.96321533 2.26481934 -19.90787598 2.13510742 -18.82055664 2.00146484 C-12.55019483 1.3015133 -6.27063867 0.6933747 0 0 Z " fill="#FFFFFF" transform="translate(283.2255859375,13.75390625)"/>
<path d="M0 0 C10.14129827 5.69021398 20.12822169 11.59832858 29.98095703 17.77490234 C31.75027494 18.84847396 33.57319731 19.83265667 35.40234375 20.80078125 C38.13167067 22.34344429 40.06741057 23.53139976 42 26 C42.74806461 30.48838768 41.80257405 34.5614551 41 39 C40.59699106 42.43276035 40.2723876 45.87252431 39.9375 49.3125 C39.63071158 52.20897571 39.31493904 55.10439545 39 58 C31.97896967 55.28316653 25.62088579 51.46392174 19.125 47.6875 C17.99191406 47.03587891 16.85882813 46.38425781 15.69140625 45.71289062 C12.44520196 43.83400413 9.2219326 41.92011572 6 40 C5.07928711 39.48131348 4.15857422 38.96262695 3.20996094 38.42822266 C-2.69970172 34.90510956 -2.69970172 34.90510956 -4.11328125 30.64453125 C-3.98793805 26.61193792 -3.72565498 22.68477048 -3.1875 18.6875 C-3.0942041 17.94636963 -3.0009082 17.20523926 -2.90478516 16.44165039 C-2.18433578 10.90915433 -1.2559946 5.43818939 0 0 Z " fill="#FFFFFF" transform="translate(251,21)"/>
<path d="M0 0 C7.59 0 15.18 0 23 0 C23 0.33 23 0.66 23 1 C15.41 1 7.82 1 0 1 C0 0.67 0 0.34 0 0 Z " fill="#FFFFFF" transform="translate(192,110)"/>
<path d="M0 0 C3.46669597 1.81304215 6.7510985 3.82296969 10 6 C8.71937515 7.7074998 7.38232443 9.37373596 6 11 C5.34 11 4.68 11 4 11 C4 11.66 4 12.32 4 13 C3.00420457 14.00418696 2.00364738 15.00366073 1 16 C-2.03891056 22.18635363 -2.86949126 27.27823369 -1 34 C0.65379429 37.28477762 2.76711574 40.08754227 5 43 C5.61359375 43.8765625 6.2271875 44.753125 6.859375 45.65625 C10.82522604 51.30362188 15.09758658 56.45782153 19.7734375 61.52734375 C22.70714538 64.78530355 25.40285223 68.20525667 28.109375 71.65234375 C29.79579132 73.74642682 31.55093245 75.71426805 33.375 77.6875 C45.22998544 91.115916 53.04461103 106.61657257 57 124 C57.19335938 124.78890625 57.38671875 125.5778125 57.5859375 126.390625 C61.36420707 150.2008521 52.71950964 172.81696883 39 192 C33.62032519 199.26486 27.55004756 205.88445473 21.39697266 212.48974609 C20.06864209 213.92579169 18.75839627 215.37850338 17.44921875 216.83203125 C11.76985811 223.13189866 5.90681518 229.22503124 -0.0625 235.25 C-0.81354004 236.01401123 -1.56458008 236.77802246 -2.33837891 237.56518555 C-3.04269043 238.27070557 -3.74700195 238.97622559 -4.47265625 239.703125 C-5.42023804 240.65687012 -5.42023804 240.65687012 -6.38696289 241.62988281 C-8 243 -8 243 -10 243 C-10 243.66 -10 244.32 -10 245 C-11.87319385 246.88713822 -13.89200193 248.54636835 -15.9296875 250.25390625 C-18.09747904 252.03222875 -18.09747904 252.03222875 -20.3125 254.3125 C-24.477474 256.92771623 -29.13400573 257.58361458 -34 258 C-34.33 257.67 -34.66 257.34 -35 257 C-35 257.99 -35 258.98 -35 260 C-36.64488294 261.68816933 -38.31337542 263.35353315 -40 265 C-42.73412423 269.43827015 -42.65773925 273.93540779 -42 279 C-39.60198912 283.33486582 -36.66899299 285.41430427 -32 287 C-28.94125304 286.94493254 -26.00569502 286.55438375 -23 286 C-22.34 283.69 -21.68 281.38 -21 279 C-17.69668071 280.17214555 -14.76863208 281.6823584 -11.75 283.4375 C-7.88139688 285.66016477 -4.1779166 286.99259849 0.15234375 288.03125 C2 289 2 289 3.234375 291.15625 C4.14157097 294.52583502 4.30121974 297.51063872 4.3125 301 C4.32925781 302.19625 4.34601563 303.3925 4.36328125 304.625 C3.96488482 308.32623137 3.47416418 310.21330982 1 313 C-11.63270402 315.566018 -27.84355888 311.06688009 -38.578125 304.3984375 C-40.85096316 302.70540499 -42.93267125 300.937614 -45 299 C-45.63679687 298.40445312 -46.27359375 297.80890625 -46.9296875 297.1953125 C-54.67184376 289.18733114 -58.18331549 278.68170939 -58.0625 267.6875 C-58.05347656 266.61886719 -58.04445312 265.55023438 -58.03515625 264.44921875 C-58.01775391 263.23685547 -58.01775391 263.23685547 -58 262 C-58.66 262 -59.32 262 -60 262 C-59.67 267.28 -59.34 272.56 -59 278 C-59.99 277.01 -60.98 276.02 -62 275 C-67.30558995 284.37320892 -69.69949586 295.18016777 -67.3828125 305.83984375 C-64.90544268 314.35717272 -60.54319179 322.97120547 -53 328 C-53 328.66 -53 329.32 -53 330 C-52.26523438 330.28617187 -51.53046875 330.57234375 -50.7734375 330.8671875 C-48 332 -48 332 -45.8515625 333.0703125 C-36.29149798 337.59876411 -25.19703917 337.49164343 -15.2734375 333.98046875 C-4.91185127 329.51181214 3.96215005 323.52229512 8.3125 312.75 C10.1320154 302.82537056 9.19399692 294.74927982 3.8203125 286.1015625 C-0.92631506 279.89443415 -8.60033893 274.08913178 -16.1875 272.2109375 C-19.07962594 271.81193415 -19.07962594 271.81193415 -22 273 C-22 273.66 -22 274.32 -22 275 C-22.57494867 282.24435318 -22.57494867 282.24435318 -24.125 285 C-27.17097306 286.62451896 -29.61595595 286.35007352 -33 286 C-36.62342508 284.3529886 -39.16816086 282.5672657 -41 279 C-41.5392057 274.22417809 -41.5322598 272.02509295 -39.3125 267.75 C-36.23680481 264.09241653 -33.56674553 261.52224851 -29 260 C-11.85089562 258.80034935 1.06322642 264.02465841 14.9140625 274.125 C15.60242188 274.74375 16.29078125 275.3625 17 276 C17 276.66 17 277.32 17 278 C17.556875 278.185625 18.11375 278.37125 18.6875 278.5625 C24.97445362 282.47060631 27.85919857 290.21030136 30 297 C32.73327162 310.30671708 31.41055892 324.39568427 24 336 C17.48139585 344.96946315 7.68820757 351.86375223 -3 355 C-8.4878971 354.75195945 -13.15501586 352.33709273 -18.0625 350.0625 C-20.38355026 349.00334319 -22.70526331 347.94611762 -25.03173828 346.89892578 C-26.53453417 346.21258313 -28.01979199 345.48771013 -29.49609375 344.74609375 C-36.85452844 342.55348685 -43.30004963 344.40620541 -50.25 347.0625 C-59.9025958 350.72631751 -59.9025958 350.72631751 -64 349 C-78.21907141 338.82340858 -88.95424058 322.32147665 -92.3125 305.1875 C-94.33648998 290.46056339 -93.88496427 275.91415622 -86 263 C-85.34 262.34 -84.68 261.68 -84 261 C-90.89509632 263.50509672 -97.13092748 267.56121865 -100.5 274.25 C-106.09710669 287.20626549 -101.87510091 299.79595123 -98.5078125 312.81640625 C-95.40300831 325.06588207 -91.57625787 340.23004669 -98 352 C-104.1371693 361.07964772 -112.88000225 366.76045223 -123.421875 369.66796875 C-150.68930438 373.17968314 -173.15242491 361.45478383 -194.09350586 345.30908203 C-199.73413537 341.03102632 -205.4844306 337.81354133 -212 335 C-211.67 334.34 -211.34 333.68 -211 333 C-217.40615629 329.94132292 -222.00959699 328.07161296 -229 330 C-231.67666643 331.92170923 -232.70841059 333.28074612 -233.9375 336.3125 C-234.02484123 340.06817296 -232.61312327 342.64966705 -231 346 C-230.67 346.99 -230.34 347.98 -230 349 C-228.9171875 349.37125 -228.9171875 349.37125 -227.8125 349.75 C-223.75293497 351.55425112 -221.15216832 354.10487845 -219 358 C-218.55552336 361.19321375 -219.03757672 362.7919224 -220 366 C-221.5625 368 -221.5625 368 -224 369 C-230.29876408 369.73485581 -234.83375539 368.73451403 -240 365 C-247.75249795 357.79923092 -252.50388612 350.47341128 -253.09375 339.796875 C-252.78843537 330.68832198 -248.66444623 322.50699657 -242.1484375 316.2109375 C-235.69338541 310.99031769 -229.38268163 308.63637034 -221.0625 309.0625 C-208.1490125 310.6400923 -196.75125548 318.06245016 -186.38671875 325.59375 C-172.10090299 335.91894374 -155.18426151 339.97264658 -137.8125 337.375 C-131.68926954 335.94657919 -125.65214055 333.11399089 -121.51953125 328.26171875 C-114.92458626 317.52410073 -117.82104491 303.08023282 -120 291.4375 C-124.24264296 268.62499326 -124.24264296 268.62499326 -119 260 C-113.14906711 252.08776284 -105.85417299 246.23018595 -97 242 C-109.58105512 247.81343698 -118.52369348 253.18184315 -125 266 C-126.20760232 268.99576292 -126.20760232 268.99576292 -125.7890625 272.29296875 C-125.60174082 276.73962866 -125.73606102 279.72136557 -127 284 C-131.3710833 288.13703108 -136.38080638 290.02344687 -142 292 C-142.7744043 292.28166016 -143.54880859 292.56332031 -144.34667969 292.85351562 C-168.29319602 301.34657278 -194.43995241 305.1447534 -218.2890625 294.37109375 C-227.97277994 289.4734211 -236.73878771 282.89270324 -240.4375 272.28857422 C-241.49850527 267.97179323 -241.39703808 263.67111291 -241.3125 259.25 C-241.29977051 258.27208496 -241.28704102 257.29416992 -241.27392578 256.28662109 C-240.90973476 238.19445382 -235.49510599 223.41348369 -226.25195312 208.02685547 C-223.97926916 204.1714716 -222.48789855 201.61774241 -223 197 C-222.67 196.67 -222.34 196.34 -222 196 C-222 195.175 -222 194.35 -222 193.5 C-222 191 -222 191 -221 190 C-222.9694341 182.98389103 -225.83657835 178.97969279 -232 175 C-235.58198579 173.38481009 -239.2659615 172.21170786 -243 171 C-245.15613302 170.21524058 -247.30229649 169.40253744 -249.4375 168.5625 C-250.40558594 168.19253906 -251.37367188 167.82257813 -252.37109375 167.44140625 C-256.07629421 165.40987732 -258.21443761 162.85193667 -259.86328125 158.96484375 C-261.55084884 151.34877786 -261.86959743 142.90017371 -258.1875 135.8125 C-255.88829538 132.85637977 -255.44515228 132.59947094 -252 132 C-251.9498877 132.6705542 -251.89977539 133.3411084 -251.84814453 134.03198242 C-251.61534435 137.08451542 -251.37029582 140.13594677 -251.125 143.1875 C-251.04636719 144.24259766 -250.96773437 145.29769531 -250.88671875 146.38476562 C-250.80292969 147.40634766 -250.71914062 148.42792969 -250.6328125 149.48046875 C-250.55949707 150.41785889 -250.48618164 151.35524902 -250.41064453 152.32104492 C-249.74856419 156.64031221 -248.93615372 159.26773252 -245.453125 161.9921875 C-242.60180268 163.66820867 -239.75147179 165.33993861 -236.86279297 166.95068359 C-235.01322962 167.99254772 -233.19789266 169.08162813 -231.37890625 170.17578125 C-225.13640121 173.86766209 -225.13640121 173.86766209 -218.10546875 174.87109375 C-215.54480075 174.137829 -213.3537664 173.239737 -211 172 C-209.00729869 170.98553388 -207.00970734 169.98034504 -205 169 C-202 170 -202 170 -200.796875 172.40625 C-197.75215705 181.40407321 -197.0486139 187.29690337 -201.1875 195.9375 C-202.97743865 199.27632539 -204.90141993 202.51713827 -206.875 205.75 C-216.061602 220.87109941 -222.40373513 235.2335653 -219.63671875 253.3828125 C-217.52451541 260.48096522 -211.52292277 266.60105735 -205.5390625 270.67578125 C-191.56005599 278.15036044 -173.34365427 277.80807412 -158.26953125 274.03515625 C-145.3202443 269.93532227 -133.80096827 263.22616993 -125.33984375 252.46875 C-124.89769531 251.9840625 -124.45554688 251.499375 -124 251 C-123.34 251 -122.68 251 -122 251 C-121.71125 250.113125 -121.4225 249.22625 -121.125 248.3125 C-120 245 -120 245 -118.9375 242.6875 C-115.51894058 232.88762965 -117.22443877 223.29293028 -121.5625 214.0625 C-125.77538634 206.16460705 -131.2949324 199.31070788 -136.9296875 192.40234375 C-143.56563572 184.25282193 -149.63927025 176.04822973 -155 167 C-155.57621094 166.03964844 -156.15242188 165.07929688 -156.74609375 164.08984375 C-167.34029379 144.88290252 -166.81709807 122.95107616 -160.96875 102.37109375 C-153.83984858 80.81580061 -139.16020802 62.76035643 -119 52 C-91.10481187 39.40146549 -58.94794176 38.05082805 -30.17578125 48.52807617 C-19.30596234 52.68633752 -8.23559011 57.85655378 1 65 C1 65.66 1 66.32 1 67 C1.56203125 67.2475 2.1240625 67.495 2.703125 67.75 C5.39092569 69.21274867 7.46405482 70.96804873 9.75 73 C10.54921875 73.70125 11.3484375 74.4025 12.171875 75.125 C14 77 14 77 14 79 C14.99 79.33 15.98 79.66 17 80 C18.59329251 81.97180951 20.02715418 83.90409381 21.4375 86 C21.83855957 86.59232422 22.23961914 87.18464844 22.65283203 87.79492188 C31.97779478 101.83381144 35.78415341 119.37513446 33.3125 136.125 C27.69625551 163.8714794 11.88918821 184.05990431 -10.375 200.875 C-20.34438235 208.43371682 -29.44377382 216.17176474 -36 227 C-36.75796875 228.24716797 -36.75796875 228.24716797 -37.53125 229.51953125 C-40.24953882 233.96601978 -40.24953882 233.96601978 -41 239 C-40.52433594 238.32517578 -40.52433594 238.32517578 -40.0390625 237.63671875 C-36.83498873 233.22005352 -33.39373487 229.05980376 -29.75 225 C-28.89921875 224.05125 -28.0484375 223.1025 -27.171875 222.125 C-25 220 -25 220 -23 220 C-23 219.34 -23 218.68 -23 218 C-20.88728296 216.33934905 -18.7628233 214.78741414 -16.5625 213.25 C5.8462893 197.18734956 28.58962636 178.59948587 36.1875 150.875 C36.51105469 149.71742188 36.83460938 148.55984375 37.16796875 147.3671875 C41.98554948 127.87068707 40.03243821 106.30816659 29.8671875 88.87890625 C26.59006396 83.8261028 23.14336035 79.05990207 18.79296875 74.87890625 C17 73 17 73 17 71 C16.42507813 70.74605469 15.85015625 70.49210937 15.2578125 70.23046875 C12.74451577 68.86076551 10.96001301 67.27056572 8.875 65.3125 C0.53388877 57.80955554 -8.31450805 52.63393674 -18.36328125 47.796875 C-26.71956352 43.70776825 -26.71956352 43.70776825 -28.3125 39.6875 C-30.11983636 30.17705041 -30.40908856 20.31426669 -25 12 C-19.47693981 3.94248513 -10.2354433 -3.89557917 0 0 Z M-103 175 C-100.21081851 176.10540926 -100.21081851 176.10540926 -98 176 C-98.33 176.99 -98.66 177.98 -99 179 C-97.49236293 180.73378263 -96.15856975 181.91542947 -94.125 183 C-91.65257852 183.23492141 -91.65257852 183.23492141 -89.25 180.5625 C-88.5075 179.716875 -87.765 178.87125 -87 178 C-82.28768432 183.43728732 -80.4999659 186.49948846 -81 194 C-81.82124254 196.45868931 -82.87138535 198.65248152 -84 201 C-84.33 201.99 -84.66 202.98 -85 204 C-87.4375 205.125 -87.4375 205.125 -90 206 C-90.99 206.495 -90.99 206.495 -92 207 C-93.93359586 207.14851844 -95.87342097 207.22130833 -97.8125 207.25 C-98.85019531 207.27578125 -99.88789063 207.3015625 -100.95703125 207.328125 C-104.37667646 206.95938277 -106.16694076 205.87881764 -109 204 C-109.66 204 -110.32 204 -111 204 C-113.23109819 196.20037576 -113.05275223 189.80747642 -111 182 C-113.92806277 184.67344862 -114.87955939 186.64948563 -115.23828125 190.671875 C-115.40029421 197.39114941 -115.2143337 201.6466572 -111 207 C-105.85641165 210.95660642 -100.35531533 211.52960961 -94 211 C-87.37000599 209.07926875 -82.67193575 205.88005927 -79 200 C-76.83992975 194.83461462 -76.49594101 190.3513983 -78 185 C-80.71260246 179.96230972 -83.75168846 176.05556522 -89.33203125 174.2421875 C-94.47308946 173.02436561 -98.06646871 172.66306413 -103 175 Z M-110 179 C-110 179.99 -110 180.98 -110 182 C-109.34 181.01 -108.68 180.02 -108 179 C-108.66 179 -109.32 179 -110 179 Z M-62 180 C-61.01 180.66 -60.02 181.32 -59 182 C-58.87625 182.825 -58.7525 183.65 -58.625 184.5 C-58.41875 185.325 -58.2125 186.15 -58 187 C-55.52363988 188.37466625 -55.52363988 188.37466625 -53 189 C-51.35 187.35 -49.7 185.7 -48 184 C-43.83425372 187.95211827 -41.88166214 190.41373101 -41.6875 196.1875 C-41.77692411 201.17899108 -42.84962685 205.06868928 -46 209 C-50.39791525 212.52428874 -55.18495454 213.66086876 -60.75390625 213.390625 C-65.16040182 212.62427794 -69.50662235 211.03598753 -72.21484375 207.34375 C-73.33722128 203.99336933 -73.2107092 200.73770519 -73.125 197.25 C-73.11597656 196.55261719 -73.10695312 195.85523438 -73.09765625 195.13671875 C-73.07419888 193.42433042 -73.03833104 191.71211996 -73 190 C-75.1552701 190.78654946 -75.1552701 190.78654946 -75.609375 192.7578125 C-76.74404308 199.27080725 -76.86349881 205.40458794 -73 211 C-69.31936064 215.14071928 -65.15222758 216.0684246 -59.8515625 216.8828125 C-55.40731926 217.06545263 -51.97878987 215.87284452 -48 214 C-46.6078125 213.38125 -46.6078125 213.38125 -45.1875 212.75 C-41.36519475 209.6921558 -39.53969776 205.61909329 -38 201 C-37.45824807 194.60732726 -38.39740736 190.35038511 -42 185 C-47.04533362 179.36109772 -54.88959216 178.2350952 -62 180 Z M-70 184 C-70.66 185.32 -71.32 186.64 -72 188 C-70.68 186.68 -69.36 185.36 -68 184 C-68.66 184 -69.32 184 -70 184 Z M-73 188 C-72 190 -72 190 -72 190 Z M-92 240 C-92 240.33 -92 240.66 -92 241 C-90.35 241 -88.7 241 -87 241 C-87 240.67 -87 240.34 -87 240 C-88.65 240 -90.3 240 -92 240 Z " fill="#FFFFFF" transform="translate(274,75)"/>
<path d="M0 0 C3.80190636 1.80177302 7.68203656 3.02730698 11.6953125 4.27734375 C9.28092272 7.05777808 6.89355635 8.23449334 3.50390625 9.6171875 C2.47587891 10.04064453 1.44785156 10.46410156 0.38867188 10.90039062 C-1.22297852 11.55104492 -1.22297852 11.55104492 -2.8671875 12.21484375 C-3.91455078 12.64474609 -4.96191406 13.07464844 -6.04101562 13.51757812 C-8.12234512 14.37003066 -10.2064783 15.2156722 -12.29345703 16.05419922 C-14.26198733 16.85380492 -16.2219371 17.67495919 -18.17138672 18.52001953 C-19.04939941 18.89497559 -19.92741211 19.26993164 -20.83203125 19.65625 C-21.601521 19.99342041 -22.37101074 20.33059082 -23.16381836 20.67797852 C-28.16206418 22.07730495 -32.68391057 18.74100896 -37.0546875 16.52734375 C-38.12396484 15.98980469 -38.12396484 15.98980469 -39.21484375 15.44140625 C-44.0892915 12.9640818 -48.75152818 10.3127833 -53.3046875 7.27734375 C-50.2714561 5.25518949 -47.72781868 4.2941333 -44.28125 3.1484375 C-43.0953125 2.75333984 -41.909375 2.35824219 -40.6875 1.95117188 C-38.82738281 1.33918945 -38.82738281 1.33918945 -36.9296875 0.71484375 C-35.69734375 0.30298828 -34.465 -0.10886719 -33.1953125 -0.53320312 C-20.52566237 -4.73122711 -12.29085662 -6.04037826 0 0 Z " fill="#FFFFFF" transform="translate(80.3046875,194.72265625)"/>
<path d="M0 0 C0.33 0 0.66 0 1 0 C1 5.28 1 10.56 1 16 C0.67 16 0.34 16 0 16 C0 10.72 0 5.44 0 0 Z " fill="#FFFFFF" transform="translate(102,196)"/>
<path d="M0 0 C1.77670884 20.3588469 1.77670884 20.3588469 -1.88671875 25.8046875 C-4.84524891 27.65321606 -7.72047604 28.80845192 -11 30 C-13.01906604 30.97812079 -15.00303795 32.01264963 -16.99169922 33.05102539 C-19.03584467 34.11117581 -21.09604843 35.12817727 -23.16796875 36.1328125 C-27.20295089 38.09092157 -31.19286865 40.13327469 -35.1796875 42.1875 C-37 43 -37 43 -39 43 C-39.14483042 38.56284145 -39.23391752 34.12628723 -39.3125 29.6875 C-39.35439453 28.42486328 -39.39628906 27.16222656 -39.43945312 25.86132812 C-39.45556641 24.65283203 -39.47167969 23.44433594 -39.48828125 22.19921875 C-39.51446533 21.08377686 -39.54064941 19.96833496 -39.56762695 18.8190918 C-39 16 -39 16 -36.75878906 14.23071289 C-34.30806153 13.13742816 -31.87897053 12.06380873 -29.37109375 11.109375 C-25.72482736 9.68954199 -22.12060816 8.2080217 -18.53515625 6.640625 C-17.63345703 6.24746094 -16.73175781 5.85429687 -15.80273438 5.44921875 C-13.94722146 4.63718387 -12.09309094 3.8219841 -10.24023438 3.00390625 C-9.34755859 2.61589844 -8.45488281 2.22789062 -7.53515625 1.828125 C-6.734729 1.4765332 -5.93430176 1.12494141 -5.10961914 0.76269531 C-3 0 -3 0 0 0 Z " fill="#FFFFFF" transform="translate(93,203)"/>
<path d="M0 0 C5.28 0 10.56 0 16 0 C16 0.33 16 0.66 16 1 C10.72 1 5.44 1 0 1 C0 0.67 0 0.34 0 0 Z " fill="#FFFFFF" transform="translate(335,272)"/>
<path d="M0 0 C11.92322162 11.78538091 16.14492459 26.72511403 16.27734375 43.06640625 C16.11010628 57.49105993 12.42738545 71.44135992 2.52734375 82.44140625 C-8.15386875 91.98046929 -23.10506395 98.10166868 -36.66015625 102.12890625 C-37.95421387 102.5168335 -37.95421387 102.5168335 -39.27441406 102.91259766 C-46.45448874 104.9946861 -53.52097934 106.28834787 -60.97265625 107.00390625 C-60.96105469 106.15828125 -60.94945312 105.31265625 -60.9375 104.44140625 C-60.92847656 103.30703125 -60.91945313 102.17265625 -60.91015625 101.00390625 C-60.89855469 99.89015625 -60.88695312 98.77640625 -60.875 97.62890625 C-60.98140048 93.67932061 -61.42801837 89.9150066 -61.97265625 86.00390625 C-61.33352295 85.93397461 -60.69438965 85.86404297 -60.03588867 85.79199219 C-42.68482691 83.84584479 -27.5943099 81.99678501 -14.97265625 69.00390625 C-14.31265625 69.00390625 -13.65265625 69.00390625 -12.97265625 69.00390625 C-12.69421875 68.44574219 -12.41578125 67.88757813 -12.12890625 67.3125 C-11.34969899 65.75671793 -10.55771725 64.20727657 -9.75390625 62.6640625 C-4.36257844 51.7334741 -2.48276522 40.8385145 -5.97265625 29.00390625 C-9.48823092 19.49883399 -14.51582411 12.20053763 -23.75 7.62890625 C-30.81908524 4.83618122 -36.33651584 3.78149596 -43.47265625 6.81640625 C-44.30539062 7.17863281 -45.138125 7.54085938 -45.99609375 7.9140625 C-51.78781592 10.03465369 -57.91317353 10.93743729 -63.97265625 12.00390625 C-62.04798744 4.09351745 -58.35642215 -1.00353951 -51.609375 -5.609375 C-34.8226378 -14.68545779 -14.53641155 -12.17063028 0 0 Z " fill="#FFFFFF" transform="translate(369.97265625,285.99609375)"/>
<path d="M0 0 C4.78887918 2.85032774 8.12106892 6.62151375 11.5 11 C8.3948025 14.1051975 4.49822904 15.14892461 0.4375 16.6875 C-0.38427734 17.02072266 -1.20605469 17.35394531 -2.05273438 17.69726562 C-7.79975633 19.87218109 -12.48800445 20.54664517 -18.5 19 C-20.34562286 18.09337824 -22.18945032 17.179042 -23.984375 16.17578125 C-28.13528297 14.23568296 -32.54743631 13.07086027 -36.95336914 11.83886719 C-43.22039434 10.01327184 -43.22039434 10.01327184 -45.5 7 C-40.11321338 5.06398351 -34.62988099 3.78748124 -29.0625 2.5 C-21.77096283 0.82419808 -21.77096283 0.82419808 -14.55078125 -1.12890625 C-9.04683724 -2.70045492 -5.09923309 -2.56690208 0 0 Z " fill="#FFFFFF" transform="translate(345.5,295)"/>
<path d="M0 0 C0 2.97 0 5.94 0 9 C-2.15377564 6.37801226 -3.40072174 4.35595828 -4 1 C-2 0 -2 0 0 0 Z " fill="#FFFFFF" transform="translate(389,297)"/>
<path d="M0 0 C5.11722416 7.67583624 4.56321027 16.19004139 3.703125 25.0625 C0.82700707 30.02314377 -4.28284365 31.06974547 -9.5 32.9375 C-11.10681641 33.55334961 -11.10681641 33.55334961 -12.74609375 34.18164062 C-18.47932773 36.32527729 -18.47932773 36.32527729 -21 37 C-21.66 36.67 -22.32 36.34 -23 36 C-23 26.76 -23 17.52 -23 8 C-14.3125 5.125 -14.3125 5.125 -11.6027832 4.23095703 C-7.68468988 2.92946635 -3.80985914 1.59843377 0 0 Z " fill="#FFFFFF" transform="translate(358,309)"/>
<path d="M0 0 C0.33 0 0.66 0 1 0 C1 5.94 1 11.88 1 18 C0.67 18 0.34 18 0 18 C0 12.06 0 6.12 0 0 Z " fill="#FFFFFF" transform="translate(27,328)"/>
<path d="M0 0 C0.33 0 0.66 0 1 0 C1.33 4.95 1.66 9.9 2 15 C-0.35119399 11.47320901 -0.21443452 9.97120515 -0.125 5.8125 C-0.10695312 4.72582031 -0.08890625 3.63914062 -0.0703125 2.51953125 C-0.04710937 1.68808594 -0.02390625 0.85664063 0 0 Z " fill="#FFFFFF" transform="translate(173,355)"/>
<path d="M0 0 C1.4798435 0.29108108 2.95639274 0.59927999 4.4296875 0.921875 C5.96182826 1.22733088 7.49437953 1.5307352 9.02734375 1.83203125 C9.76355957 1.98043457 10.49977539 2.12883789 11.25830078 2.28173828 C14.92201176 2.98021241 18.59344922 3.3344897 22.3046875 3.671875 C22.3046875 4.001875 22.3046875 4.331875 22.3046875 4.671875 C6.54446069 4.85656516 6.54446069 4.85656516 -0.6953125 3.671875 C-1.8503125 3.48625 -3.0053125 3.300625 -4.1953125 3.109375 C-5.4328125 2.8928125 -5.4328125 2.8928125 -6.6953125 2.671875 C-4.70630871 -0.49173733 -3.78931702 -0.33647212 0 0 Z " fill="#FFFFFF" transform="translate(67.6953125,378.328125)"/>
<path d="M0 0 C0.66 0.66 1.32 1.32 2 2 C1.9765625 5.0390625 1.9765625 5.0390625 1.625 8.625 C1.51414063 9.81351562 1.40328125 11.00203125 1.2890625 12.2265625 C1.19367188 13.14179688 1.09828125 14.05703125 1 15 C0.67 15 0.34 15 0 15 C0 10.05 0 5.1 0 0 Z " fill="#FFFFFF" transform="translate(185,405)"/>
<path d="M0 0 C0.56009766 0.42442383 1.12019531 0.84884766 1.69726562 1.28613281 C4.00051654 2.97771453 6.47334953 4.16854826 9.046875 5.3984375 C9.97628906 5.86636719 10.90570313 6.33429688 11.86328125 6.81640625 C14.70886334 8.17930734 17.56549254 9.48289409 20.44921875 10.76171875 C21.36026367 11.16592041 22.27130859 11.57012207 23.20996094 11.98657227 C25.03988227 12.79412731 26.87252684 13.59554323 28.70800781 14.39038086 C29.96436035 14.94350952 29.96436035 14.94350952 31.24609375 15.5078125 C32.00237061 15.83620117 32.75864746 16.16458984 33.5378418 16.50292969 C35.296875 17.4609375 35.296875 17.4609375 36.296875 19.4609375 C35.26949219 19.96882813 34.24210937 20.47671875 33.18359375 21 C31.78371382 21.69502989 30.38398464 22.39036347 28.984375 23.0859375 C28.25831055 23.44550537 27.53224609 23.80507324 26.78417969 24.17553711 C21.58207202 26.76911995 16.52218495 29.54363264 11.53125 32.52734375 C8.78202526 33.67605828 8.08680572 33.39019951 5.296875 32.4609375 C3.34129051 31.53193799 1.40859225 30.55421984 -0.5078125 29.546875 C-1.6424292 28.95382568 -2.7770459 28.36077637 -3.94604492 27.74975586 C-5.15677434 27.11188484 -6.36746706 26.47394417 -7.578125 25.8359375 C-10.02897332 24.55151946 -12.48124613 23.26983383 -14.93359375 21.98828125 C-15.52954849 21.6763533 -16.12550323 21.36442535 -16.73951721 21.04304504 C-21.09494958 18.76700194 -25.47905865 16.56323891 -29.890625 14.3984375 C-34.70419292 12.01883178 -39.22204654 9.41844928 -43.703125 6.4609375 C-34.23092448 -4.74052589 -11.5136408 -8.04290271 0 0 Z " fill="#FFFFFF" transform="translate(250.703125,424.5390625)"/>
<path d="M0 0 C3.57510089 1.28979121 6.2997323 2.82395184 9.3125 5.125 C14.80901256 9.0603729 20.61536181 11.92928047 26.671875 14.875 C31.2698906 17.11278537 35.79489917 19.47976523 40.3125 21.875 C41.03574463 22.25640137 41.75898926 22.63780273 42.50415039 23.03076172 C45.42947288 24.58362884 48.24198468 26.16132312 51 28 C51.43237305 30.61376953 51.43237305 30.61376953 51.51171875 33.8828125 C51.54716797 35.04941406 51.58261719 36.21601563 51.61914062 37.41796875 C51.65297852 39.25294922 51.65297852 39.25294922 51.6875 41.125 C51.72166016 42.35605469 51.75582031 43.58710938 51.79101562 44.85546875 C51.87371564 47.9035551 51.94279427 50.95134571 52 54 C47.79333312 52.65566485 44.3832927 51.18101031 40.6875 48.75 C39.72585937 48.12222656 38.76421875 47.49445313 37.7734375 46.84765625 C34.72432103 44.81634344 31.68283791 42.77399798 28.64453125 40.7265625 C25.83344925 38.89126229 22.98413639 37.12970356 20.12231445 35.375 C18.01283148 34.07043536 15.92389947 32.7371095 13.8359375 31.3984375 C11.59028877 29.96258665 9.43775823 28.72258783 7.0390625 27.5390625 C4.0991986 25.89311928 2.76600751 24.9069183 1 22 C-0.64377061 15.25404452 -1.2615482 7.9389264 -1 1 C-0.67 0.67 -0.34 0.34 0 0 Z " fill="#FFFFFF" transform="translate(206,433)"/>
<path d="M0 0 C5.61 0 11.22 0 17 0 C17 0.33 17 0.66 17 1 C11.39 1 5.78 1 0 1 C0 0.67 0 0.34 0 0 Z " fill="#FFFFFF" transform="translate(131,451)"/>
</svg>
